<svg version="1.1" xmlns="http://www.w3.org/2000/svg" xmlns:xlink="http://www.w3.org/1999/xlink" width="620.00634765625" height="697"><defs/><g><text fill="#eeeeee" stroke="none" font-family="Arial" font-size="24px" font-style="normal" font-weight="normal" text-decoration="none" x="0" y="0">UNREGISTERED</text><text fill="#eeeeee" stroke="none" font-family="Arial" font-size="24px" font-style="normal" font-weight="normal" text-decoration="none" x="0" y="30">UNREGISTERED</text><text fill="#eeeeee" stroke="none" font-family="Arial" font-size="24px" font-style="normal" font-weight="normal" text-decoration="none" x="0" y="60">UNREGISTERED</text><text fill="#eeeeee" stroke="none" font-family="Arial" font-size="24px" font-style="normal" font-weight="normal" text-decoration="none" x="0" y="90">UNREGISTERED</text><text fill="#eeeeee" stroke="none" font-family="Arial" font-size="24px" font-style="normal" font-weight="normal" text-decoration="none" x="0" y="120">UNREGISTERED</text><text fill="#eeeeee" stroke="none" font-family="Arial" font-size="24px" font-style="normal" font-weight="normal" text-decoration="none" x="0" y="150">UNREGISTERED</text><text fill="#eeeeee" stroke="none" font-family="Arial" font-size="24px" font-style="normal" font-weight="normal" text-decoration="none" x="0" y="180">UNREGISTERED</text><text fill="#eeeeee" stroke="none" font-family="Arial" font-size="24px" font-style="normal" font-weight="normal" text-decoration="none" x="0" y="210">UNREGISTERED</text><text fill="#eeeeee" stroke="none" font-family="Arial" font-size="24px" font-style="normal" font-weight="normal" text-decoration="none" x="0" y="240">UNREGISTERED</text><text fill="#eeeeee" stroke="none" font-family="Arial" font-size="24px" font-style="normal" font-weight="normal" text-decoration="none" x="0" y="270">UNREGISTERED</text><text fill="#eeeeee" stroke="none" font-family="Arial" font-size="24px" font-style="normal" font-weight="normal" text-decoration="none" x="0" y="300">UNREGISTERED</text><text fill="#eeeeee" stroke="none" font-family="Arial" font-size="24px" font-style="normal" font-weight="normal" text-decoration="none" x="0" y="330">UNREGISTERED</text><text fill="#eeeeee" stroke="none" font-family="Arial" font-size="24px" font-style="normal" font-weight="normal" text-decoration="none" x="0" y="360">UNREGISTERED</text><text fill="#eeeeee" stroke="none" font-family="Arial" font-size="24px" font-style="normal" font-weight="normal" text-decoration="none" x="0" y="390">UNREGISTERED</text><text fill="#eeeeee" stroke="none" font-family="Arial" font-size="24px" font-style="normal" font-weight="normal" text-decoration="none" x="0" y="420">UNREGISTERED</text><text fill="#eeeeee" stroke="none" font-family="Arial" font-size="24px" font-style="normal" font-weight="normal" text-decoration="none" x="0" y="450">UNREGISTERED</text><text fill="#eeeeee" stroke="none" font-family="Arial" font-size="24px" font-style="normal" font-weight="normal" text-decoration="none" x="0" y="480">UNREGISTERED</text><text fill="#eeeeee" stroke="none" font-family="Arial" font-size="24px" font-style="normal" font-weight="normal" text-decoration="none" x="0" y="510">UNREGISTERED</text><text fill="#eeeeee" stroke="none" font-family="Arial" font-size="24px" font-style="normal" font-weight="normal" text-decoration="none" x="0" y="540">UNREGISTERED</text><text fill="#eeeeee" stroke="none" font-family="Arial" font-size="24px" font-style="normal" font-weight="normal" text-decoration="none" x="0" y="570">UNREGISTERED</text><text fill="#eeeeee" stroke="none" font-family="Arial" font-size="24px" font-style="normal" font-weight="normal" text-decoration="none" x="0" y="600">UNREGISTERED</text><text fill="#eeeeee" stroke="none" font-family="Arial" font-size="24px" font-style="normal" font-weight="normal" text-decoration="none" x="0" y="630">UNREGISTERED</text><text fill="#eeeeee" stroke="none" font-family="Arial" font-size="24px" font-style="normal" font-weight="normal" text-decoration="none" x="0" y="660">UNREGISTERED</text><text fill="#eeeeee" stroke="none" font-family="Arial" font-size="24px" font-style="normal" font-weight="normal" text-decoration="none" x="0" y="690">UNREGISTERED</text><text fill="#eeeeee" stroke="none" font-family="Arial" font-size="24px" font-style="normal" font-weight="normal" text-decoration="none" x="200" y="0">UNREGISTERED</text><text fill="#eeeeee" stroke="none" font-family="Arial" font-size="24px" font-style="normal" font-weight="normal" text-decoration="none" x="200" y="30">UNREGISTERED</text><text fill="#eeeeee" stroke="none" font-family="Arial" font-size="24px" font-style="normal" font-weight="normal" text-decoration="none" x="200" y="60">UNREGISTERED</text><text fill="#eeeeee" stroke="none" font-family="Arial" font-size="24px" font-style="normal" font-weight="normal" text-decoration="none" x="200" y="90">UNREGISTERED</text><text fill="#eeeeee" stroke="none" font-family="Arial" font-size="24px" font-style="normal" font-weight="normal" text-decoration="none" x="200" y="120">UNREGISTERED</text><text fill="#eeeeee" stroke="none" font-family="Arial" font-size="24px" font-style="normal" font-weight="normal" text-decoration="none" x="200" y="150">UNREGISTERED</text><text fill="#eeeeee" stroke="none" font-family="Arial" font-size="24px" font-style="normal" font-weight="normal" text-decoration="none" x="200" y="180">UNREGISTERED</text><text fill="#eeeeee" stroke="none" font-family="Arial" font-size="24px" font-style="normal" font-weight="normal" text-decoration="none" x="200" y="210">UNREGISTERED</text><text fill="#eeeeee" stroke="none" font-family="Arial" font-size="24px" font-style="normal" font-weight="normal" text-decoration="none" x="200" y="240">UNREGISTERED</text><text fill="#eeeeee" stroke="none" font-family="Arial" font-size="24px" font-style="normal" font-weight="normal" text-decoration="none" x="200" y="270">UNREGISTERED</text><text fill="#eeeeee" stroke="none" font-family="Arial" font-size="24px" font-style="normal" font-weight="normal" text-decoration="none" x="200" y="300">UNREGISTERED</text><text fill="#eeeeee" stroke="none" font-family="Arial" font-size="24px" font-style="normal" font-weight="normal" text-decoration="none" x="200" y="330">UNREGISTERED</text><text fill="#eeeeee" stroke="none" font-family="Arial" font-size="24px" font-style="normal" font-weight="normal" text-decoration="none" x="200" y="360">UNREGISTERED</text><text fill="#eeeeee" stroke="none" font-family="Arial" font-size="24px" font-style="normal" font-weight="normal" text-decoration="none" x="200" y="390">UNREGISTERED</text><text fill="#eeeeee" stroke="none" font-family="Arial" font-size="24px" font-style="normal" font-weight="normal" text-decoration="none" x="200" y="420">UNREGISTERED</text><text fill="#eeeeee" stroke="none" font-family="Arial" font-size="24px" font-style="normal" font-weight="normal" text-decoration="none" x="200" y="450">UNREGISTERED</text><text fill="#eeeeee" stroke="none" font-family="Arial" font-size="24px" font-style="normal" font-weight="normal" text-decoration="none" x="200" y="480">UNREGISTERED</text><text fill="#eeeeee" stroke="none" font-family="Arial" font-size="24px" font-style="normal" font-weight="normal" text-decoration="none" x="200" y="510">UNREGISTERED</text><text fill="#eeeeee" stroke="none" font-family="Arial" font-size="24px" font-style="normal" font-weight="normal" text-decoration="none" x="200" y="540">UNREGISTERED</text><text fill="#eeeeee" stroke="none" font-family="Arial" font-size="24px" font-style="normal" font-weight="normal" text-decoration="none" x="200" y="570">UNREGISTERED</text><text fill="#eeeeee" stroke="none" font-family="Arial" font-size="24px" font-style="normal" font-weight="normal" text-decoration="none" x="200" y="600">UNREGISTERED</text><text fill="#eeeeee" stroke="none" font-family="Arial" font-size="24px" font-style="normal" font-weight="normal" text-decoration="none" x="200" y="630">UNREGISTERED</text><text fill="#eeeeee" stroke="none" font-family="Arial" font-size="24px" font-style="normal" font-weight="normal" text-decoration="none" x="200" y="660">UNREGISTERED</text><text fill="#eeeeee" stroke="none" font-family="Arial" font-size="24px" font-style="normal" font-weight="normal" text-decoration="none" x="200" y="690">UNREGISTERED</text><text fill="#eeeeee" stroke="none" font-family="Arial" font-size="24px" font-style="normal" font-weight="normal" text-decoration="none" x="400" y="0">UNREGISTERED</text><text fill="#eeeeee" stroke="none" font-family="Arial" font-size="24px" font-style="normal" font-weight="normal" text-decoration="none" x="400" y="30">UNREGISTERED</text><text fill="#eeeeee" stroke="none" font-family="Arial" font-size="24px" font-style="normal" font-weight="normal" text-decoration="none" x="400" y="60">UNREGISTERED</text><text fill="#eeeeee" stroke="none" font-family="Arial" font-size="24px" font-style="normal" font-weight="normal" text-decoration="none" x="400" y="90">UNREGISTERED</text><text fill="#eeeeee" stroke="none" font-family="Arial" font-size="24px" font-style="normal" font-weight="normal" text-decoration="none" x="400" y="120">UNREGISTERED</text><text fill="#eeeeee" stroke="none" font-family="Arial" font-size="24px" font-style="normal" font-weight="normal" text-decoration="none" x="400" y="150">UNREGISTERED</text><text fill="#eeeeee" stroke="none" font-family="Arial" font-size="24px" font-style="normal" font-weight="normal" text-decoration="none" x="400" y="180">UNREGISTERED</text><text fill="#eeeeee" stroke="none" font-family="Arial" font-size="24px" font-style="normal" font-weight="normal" text-decoration="none" x="400" y="210">UNREGISTERED</text><text fill="#eeeeee" stroke="none" font-family="Arial" font-size="24px" font-style="normal" font-weight="normal" text-decoration="none" x="400" y="240">UNREGISTERED</text><text fill="#eeeeee" stroke="none" font-family="Arial" font-size="24px" font-style="normal" font-weight="normal" text-decoration="none" x="400" y="270">UNREGISTERED</text><text fill="#eeeeee" stroke="none" font-family="Arial" font-size="24px" font-style="normal" font-weight="normal" text-decoration="none" x="400" y="300">UNREGISTERED</text><text fill="#eeeeee" stroke="none" font-family="Arial" font-size="24px" font-style="normal" font-weight="normal" text-decoration="none" x="400" y="330">UNREGISTERED</text><text fill="#eeeeee" stroke="none" font-family="Arial" font-size="24px" font-style="normal" font-weight="normal" text-decoration="none" x="400" y="360">UNREGISTERED</text><text fill="#eeeeee" stroke="none" font-family="Arial" font-size="24px" font-style="normal" font-weight="normal" text-decoration="none" x="400" y="390">UNREGISTERED</text><text fill="#eeeeee" stroke="none" font-family="Arial" font-size="24px" font-style="normal" font-weight="normal" text-decoration="none" x="400" y="420">UNREGISTERED</text><text fill="#eeeeee" stroke="none" font-family="Arial" font-size="24px" font-style="normal" font-weight="normal" text-decoration="none" x="400" y="450">UNREGISTERED</text><text fill="#eeeeee" stroke="none" font-family="Arial" font-size="24px" font-style="normal" font-weight="normal" text-decoration="none" x="400" y="480">UNREGISTERED</text><text fill="#eeeeee" stroke="none" font-family="Arial" font-size="24px" font-style="normal" font-weight="normal" text-decoration="none" x="400" y="510">UNREGISTERED</text><text fill="#eeeeee" stroke="none" font-family="Arial" font-size="24px" font-style="normal" font-weight="normal" text-decoration="none" x="400" y="540">UNREGISTERED</text><text fill="#eeeeee" stroke="none" font-family="Arial" font-size="24px" font-style="normal" font-weight="normal" text-decoration="none" x="400" y="570">UNREGISTERED</text><text fill="#eeeeee" stroke="none" font-family="Arial" font-size="24px" font-style="normal" font-weight="normal" text-decoration="none" x="400" y="600">UNREGISTERED</text><text fill="#eeeeee" stroke="none" font-family="Arial" font-size="24px" font-style="normal" font-weight="normal" text-decoration="none" x="400" y="630">UNREGISTERED</text><text fill="#eeeeee" stroke="none" font-family="Arial" font-size="24px" font-style="normal" font-weight="normal" text-decoration="none" x="400" y="660">UNREGISTERED</text><text fill="#eeeeee" stroke="none" font-family="Arial" font-size="24px" font-style="normal" font-weight="normal" text-decoration="none" x="400" y="690">UNREGISTERED</text><text fill="#eeeeee" stroke="none" font-family="Arial" font-size="24px" font-style="normal" font-weight="normal" text-decoration="none" x="600" y="0">UNREGISTERED</text><text fill="#eeeeee" stroke="none" font-family="Arial" font-size="24px" font-style="normal" font-weight="normal" text-decoration="none" x="600" y="30">UNREGISTERED</text><text fill="#eeeeee" stroke="none" font-family="Arial" font-size="24px" font-style="normal" font-weight="normal" text-decoration="none" x="600" y="60">UNREGISTERED</text><text fill="#eeeeee" stroke="none" font-family="Arial" font-size="24px" font-style="normal" font-weight="normal" text-decoration="none" x="600" y="90">UNREGISTERED</text><text fill="#eeeeee" stroke="none" font-family="Arial" font-size="24px" font-style="normal" font-weight="normal" text-decoration="none" x="600" y="120">UNREGISTERED</text><text fill="#eeeeee" stroke="none" font-family="Arial" font-size="24px" font-style="normal" font-weight="normal" text-decoration="none" x="600" y="150">UNREGISTERED</text><text fill="#eeeeee" stroke="none" font-family="Arial" font-size="24px" font-style="normal" font-weight="normal" text-decoration="none" x="600" y="180">UNREGISTERED</text><text fill="#eeeeee" stroke="none" font-family="Arial" font-size="24px" font-style="normal" font-weight="normal" text-decoration="none" x="600" y="210">UNREGISTERED</text><text fill="#eeeeee" stroke="none" font-family="Arial" font-size="24px" font-style="normal" font-weight="normal" text-decoration="none" x="600" y="240">UNREGISTERED</text><text fill="#eeeeee" stroke="none" font-family="Arial" font-size="24px" font-style="normal" font-weight="normal" text-decoration="none" x="600" y="270">UNREGISTERED</text><text fill="#eeeeee" stroke="none" font-family="Arial" font-size="24px" font-style="normal" font-weight="normal" text-decoration="none" x="600" y="300">UNREGISTERED</text><text fill="#eeeeee" stroke="none" font-family="Arial" font-size="24px" font-style="normal" font-weight="normal" text-decoration="none" x="600" y="330">UNREGISTERED</text><text fill="#eeeeee" stroke="none" font-family="Arial" font-size="24px" font-style="normal" font-weight="normal" text-decoration="none" x="600" y="360">UNREGISTERED</text><text fill="#eeeeee" stroke="none" font-family="Arial" font-size="24px" font-style="normal" font-weight="normal" text-decoration="none" x="600" y="390">UNREGISTERED</text><text fill="#eeeeee" stroke="none" font-family="Arial" font-size="24px" font-style="normal" font-weight="normal" text-decoration="none" x="600" y="420">UNREGISTERED</text><text fill="#eeeeee" stroke="none" font-family="Arial" font-size="24px" font-style="normal" font-weight="normal" text-decoration="none" x="600" y="450">UNREGISTERED</text><text fill="#eeeeee" stroke="none" font-family="Arial" font-size="24px" font-style="normal" font-weight="normal" text-decoration="none" x="600" y="480">UNREGISTERED</text><text fill="#eeeeee" stroke="none" font-family="Arial" font-size="24px" font-style="normal" font-weight="normal" text-decoration="none" x="600" y="510">UNREGISTERED</text><text fill="#eeeeee" stroke="none" font-family="Arial" font-size="24px" font-style="normal" font-weight="normal" text-decoration="none" x="600" y="540">UNREGISTERED</text><text fill="#eeeeee" stroke="none" font-family="Arial" font-size="24px" font-style="normal" font-weight="normal" text-decoration="none" x="600" y="570">UNREGISTERED</text><text fill="#eeeeee" stroke="none" font-family="Arial" font-size="24px" font-style="normal" font-weight="normal" text-decoration="none" x="600" y="600">UNREGISTERED</text><text fill="#eeeeee" stroke="none" font-family="Arial" font-size="24px" font-style="normal" font-weight="normal" text-decoration="none" x="600" y="630">UNREGISTERED</text><text fill="#eeeeee" stroke="none" font-family="Arial" font-size="24px" font-style="normal" font-weight="normal" text-decoration="none" x="600" y="660">UNREGISTERED</text><text fill="#eeeeee" stroke="none" font-family="Arial" font-size="24px" font-style="normal" font-weight="normal" text-decoration="none" x="600" y="690">UNREGISTERED</text><g transform="translate(-13,-30) scale(1,1)"><rect fill="#C0C0C0" stroke="none" x="64" y="584" width="96" height="57" opacity="0.2"/></g><g transform="translate(-13,-30) scale(1,1)"><rect fill="#ffffff" stroke="none" x="57" y="577" width="96" height="57"/></g><g transform="translate(-13,-30) scale(1,1)"><path fill="none" stroke="#000000" d="M 57 577 L 153 577 L 153 634 L 57 634 L 57 577 Z Z" stroke-miterlimit="10"/></g><g transform="translate(-13,-30) scale(1,1)"><path fill="none" stroke="#000000" d="M 57 602 L 153 602" stroke-miterlimit="10"/></g><g transform="translate(-13,-30) scale(1,1)"><path fill="none" stroke="#000000" d="M 57 612 L 153 612" stroke-miterlimit="10"/></g><g transform="translate(-13,-30) scale(1,1)"><g><path fill="none" stroke="none"/><text fill="#000000" stroke="none" font-family="Arial" font-size="13px" font-style="normal" font-weight="bold" text-decoration="none" x="82.595947265625" y="596.5">Lexicon</text></g></g><g transform="translate(-13,-30) scale(1,1)"><rect fill="#C0C0C0" stroke="none" x="59" y="680" width="107.96630859375" height="44" opacity="0.2"/></g><g transform="translate(-13,-30) scale(1,1)"><rect fill="#ffffff" stroke="none" x="52" y="673" width="107.96630859375" height="44"/></g><g transform="translate(-13,-30) scale(1,1)"><path fill="none" stroke="#000000" d="M 52 673 L 159.96630859375 673 L 159.96630859375 717 L 52 717 L 52 673 Z Z" stroke-miterlimit="10"/></g><g transform="translate(-13,-30) scale(1,1)"><path fill="none" stroke="#000000" d="M 52 698 L 159.96630859375 698" stroke-miterlimit="10"/></g><g transform="translate(-13,-30) scale(1,1)"><path fill="none" stroke="#000000" d="M 52 708 L 159.96630859375 708" stroke-miterlimit="10"/></g><g transform="translate(-13,-30) scale(1,1)"><g><path fill="none" stroke="none"/><text fill="#000000" stroke="none" font-family="Arial" font-size="13px" font-style="normal" font-weight="bold" text-decoration="none" x="59.734130859375" y="692.5">ThemedLexicon</text></g></g><g transform="translate(-13,-30) scale(1,1)"><path fill="none" stroke="#000000" d="M 105 672 L 105 635" stroke-miterlimit="10"/></g><g transform="translate(-13,-30) scale(1,1)"><path fill="#FFFFFF" stroke="none" d="M 113.41903551203198 655.3253497152483 L 105 635 L 96.58096448796803 655.3253497152483"/></g><g transform="translate(-13,-30) scale(1,1)"><path fill="none" stroke="#000000" d="M 113.41903551203198 655.3253497152483 L 105 635 L 96.58096448796803 655.3253497152483 L 113.41903551203198 655.3253497152483" stroke-miterlimit="10"/></g><g transform="translate(-13,-30) scale(1,1)"><rect fill="#C0C0C0" stroke="none" x="307" y="47" width="126" height="56" opacity="0.2"/></g><g transform="translate(-13,-30) scale(1,1)"><rect fill="#ffffff" stroke="none" x="300" y="40" width="126" height="56"/></g><g transform="translate(-13,-30) scale(1,1)"><path fill="none" stroke="#000000" d="M 300 40 L 426 40 L 426 96 L 300 96 L 300 40 Z Z" stroke-miterlimit="10"/></g><g transform="translate(-13,-30) scale(1,1)"><path fill="none" stroke="#000000" d="M 300 65 L 426 65" stroke-miterlimit="10"/></g><g transform="translate(-13,-30) scale(1,1)"><path fill="none" stroke="#000000" d="M 300 75 L 426 75" stroke-miterlimit="10"/></g><g transform="translate(-13,-30) scale(1,1)"><g><path fill="none" stroke="none"/><text fill="#000000" stroke="none" font-family="Arial" font-size="13px" font-style="normal" font-weight="bold" text-decoration="none" x="345.299560546875" y="59.5">Game</text></g></g><g transform="translate(-13,-30) scale(1,1)"><rect fill="#C0C0C0" stroke="none" x="307" y="150" width="126" height="64" opacity="0.2"/></g><g transform="translate(-13,-30) scale(1,1)"><rect fill="#ffffff" stroke="none" x="300" y="143" width="126" height="64"/></g><g transform="translate(-13,-30) scale(1,1)"><path fill="none" stroke="#000000" d="M 300 143 L 426 143 L 426 207 L 300 207 L 300 143 Z Z" stroke-miterlimit="10"/></g><g transform="translate(-13,-30) scale(1,1)"><path fill="none" stroke="#000000" d="M 300 168 L 426 168" stroke-miterlimit="10"/></g><g transform="translate(-13,-30) scale(1,1)"><path fill="none" stroke="#000000" d="M 300 178 L 426 178" stroke-miterlimit="10"/></g><g transform="translate(-13,-30) scale(1,1)"><g><path fill="none" stroke="none"/><text fill="#000000" stroke="none" font-family="Arial" font-size="13px" font-style="normal" font-weight="bold" text-decoration="none" x="334.216552734375" y="162.5">WordStop</text></g></g><g transform="translate(-13,-30) scale(1,1)"><path fill="none" stroke="#000000" d="M 363 142 L 363 97" stroke-miterlimit="10"/></g><g transform="translate(-13,-30) scale(1,1)"><path fill="#FFFFFF" stroke="none" d="M 371.419035512032 117.32534971524831 L 363 97 L 354.580964487968 117.32534971524831"/></g><g transform="translate(-13,-30) scale(1,1)"><path fill="none" stroke="#000000" d="M 371.419035512032 117.32534971524831 L 363 97 L 354.580964487968 117.32534971524831 L 371.419035512032 117.32534971524831" stroke-miterlimit="10"/></g><g transform="translate(-13,-30) scale(1,1)"><rect fill="#C0C0C0" stroke="none" x="493" y="271" width="135.37548828125" height="66" opacity="0.2"/></g><g transform="translate(-13,-30) scale(1,1)"><rect fill="#ffffff" stroke="none" x="486" y="264" width="135.37548828125" height="66"/></g><g transform="translate(-13,-30) scale(1,1)"><path fill="none" stroke="#000000" d="M 486 264 L 621.37548828125 264 L 621.37548828125 330 L 486 330 L 486 264 Z Z" stroke-miterlimit="10"/></g><g transform="translate(-13,-30) scale(1,1)"><path fill="none" stroke="#000000" d="M 486 289 L 621.37548828125 289" stroke-miterlimit="10"/></g><g transform="translate(-13,-30) scale(1,1)"><path fill="none" stroke="#000000" d="M 486 299 L 621.37548828125 299" stroke-miterlimit="10"/></g><g transform="translate(-13,-30) scale(1,1)"><g><path fill="none" stroke="none"/><text fill="#000000" stroke="none" font-family="Arial" font-size="13px" font-style="normal" font-weight="bold" text-decoration="none" x="495.88916015625" y="283.5">FormInputController</text></g></g><g transform="translate(-13,-30) scale(1,1)"><rect fill="#C0C0C0" stroke="none" x="491" y="380" width="139.00634765625" height="44" opacity="0.2"/></g><g transform="translate(-13,-30) scale(1,1)"><rect fill="#ffffff" stroke="none" x="484" y="373" width="139.00634765625" height="44"/></g><g transform="translate(-13,-30) scale(1,1)"><path fill="none" stroke="#000000" d="M 484 373 L 623.00634765625 373 L 623.00634765625 417 L 484 417 L 484 373 Z Z" stroke-miterlimit="10"/></g><g transform="translate(-13,-30) scale(1,1)"><path fill="none" stroke="#000000" d="M 484 398 L 623.00634765625 398" stroke-miterlimit="10"/></g><g transform="translate(-13,-30) scale(1,1)"><path fill="none" stroke="#000000" d="M 484 408 L 623.00634765625 408" stroke-miterlimit="10"/></g><g transform="translate(-13,-30) scale(1,1)"><g><path fill="none" stroke="none"/><text fill="#000000" stroke="none" font-family="Arial" font-size="13px" font-style="normal" font-weight="bold" text-decoration="none" x="493.168701171875" y="392.5">GameInputController</text></g></g><g transform="translate(-13,-30) scale(1,1)"><path fill="none" stroke="#000000" d="M 553 372 L 553 331" stroke-miterlimit="10"/></g><g transform="translate(-13,-30) scale(1,1)"><path fill="#FFFFFF" stroke="none" d="M 561.419035512032 351.3253497152483 L 553 331 L 544.580964487968 351.3253497152483"/></g><g transform="translate(-13,-30) scale(1,1)"><path fill="none" stroke="#000000" d="M 561.419035512032 351.3253497152483 L 553 331 L 544.580964487968 351.3253497152483 L 561.419035512032 351.3253497152483" stroke-miterlimit="10"/></g><g transform="translate(-13,-30) scale(1,1)"><rect fill="#C0C0C0" stroke="none" x="307" y="269" width="126" height="66" opacity="0.2"/></g><g transform="translate(-13,-30) scale(1,1)"><rect fill="#ffffff" stroke="none" x="300" y="262" width="126" height="66"/></g><g transform="translate(-13,-30) scale(1,1)"><path fill="none" stroke="#000000" d="M 300 262 L 426 262 L 426 328 L 300 328 L 300 262 Z Z" stroke-miterlimit="10"/></g><g transform="translate(-13,-30) scale(1,1)"><path fill="none" stroke="#000000" d="M 300 287 L 426 287" stroke-miterlimit="10"/></g><g transform="translate(-13,-30) scale(1,1)"><path fill="none" stroke="#000000" d="M 300 297 L 426 297" stroke-miterlimit="10"/></g><g transform="translate(-13,-30) scale(1,1)"><g><path fill="none" stroke="none"/><text fill="#000000" stroke="none" font-family="Arial" font-size="13px" font-style="normal" font-weight="bold" text-decoration="none" x="334.82275390625" y="281.5">Controller</text></g></g><g transform="translate(-13,-30) scale(1,1)"><path fill="none" stroke="#000000" d="M 484 395 L 352 395 L 352 328" stroke-miterlimit="10"/></g><g transform="translate(-13,-30) scale(1,1)"><path fill="#000000" stroke="none" d="M 356.209517756016 338.16267485762415 L 352 328 L 347.790482243984 338.16267485762415 L 352 350"/></g><g transform="translate(-13,-30) scale(1,1)"><path fill="none" stroke="#000000" d="M 356.209517756016 338.16267485762415 L 352 328 L 347.790482243984 338.16267485762415 L 352 350 L 356.209517756016 338.16267485762415" stroke-miterlimit="10"/></g><g transform="translate(-13,-30) scale(1,1)"><path fill="none" stroke="#000000" d="M 355 207 L 355 262" stroke-miterlimit="10"/></g><g transform="translate(-13,-30) scale(1,1)"><path fill="#000000" stroke="none" d="M 350.790482243984 251.83732514237585 L 355 262 L 359.209517756016 251.83732514237585 L 355 240"/></g><g transform="translate(-13,-30) scale(1,1)"><path fill="none" stroke="#000000" d="M 350.790482243984 251.83732514237585 L 355 262 L 359.209517756016 251.83732514237585 L 355 240 L 350.790482243984 251.83732514237585" stroke-miterlimit="10"/></g><g transform="translate(-13,-30) scale(1,1)"><rect fill="#C0C0C0" stroke="none" x="46" y="269" width="131.1962890625" height="66" opacity="0.2"/></g><g transform="translate(-13,-30) scale(1,1)"><rect fill="#ffffff" stroke="none" x="39" y="262" width="131.1962890625" height="66"/></g><g transform="translate(-13,-30) scale(1,1)"><path fill="none" stroke="#000000" d="M 39 262 L 170.1962890625 262 L 170.1962890625 328 L 39 328 L 39 262 Z Z" stroke-miterlimit="10"/></g><g transform="translate(-13,-30) scale(1,1)"><path fill="none" stroke="#000000" d="M 39 287 L 170.1962890625 287" stroke-miterlimit="10"/></g><g transform="translate(-13,-30) scale(1,1)"><path fill="none" stroke="#000000" d="M 39 297 L 170.1962890625 297" stroke-miterlimit="10"/></g><g transform="translate(-13,-30) scale(1,1)"><g><path fill="none" stroke="none"/><text fill="#000000" stroke="none" font-family="Arial" font-size="13px" font-style="normal" font-weight="bold" text-decoration="none" x="55.09912109375" y="281.5">ThemedLexicons</text></g></g><g transform="translate(-13,-30) scale(1,1)"><rect fill="#C0C0C0" stroke="none" x="30" y="374" width="162.8671875" height="24" opacity="0.2"/></g><g transform="translate(-13,-30) scale(1,1)"><rect fill="#ffffff" stroke="none" x="23" y="367" width="162.8671875" height="24"/></g><g transform="translate(-13,-30) scale(1,1)"><path fill="none" stroke="#000000" d="M 23 367 L 185.8671875 367 L 185.8671875 391 L 23 391 L 23 367 Z Z" stroke-miterlimit="10"/></g><g transform="translate(-13,-30) scale(1,1)"><rect fill="#ffffff" stroke="none" x="23" y="367" width="162.8671875" height="24"/></g><g transform="translate(-13,-30) scale(1,1)"><path fill="none" stroke="#000000" d="M 23 367 L 185.8671875 367 L 185.8671875 391 L 23 391 L 23 367 Z Z" stroke-miterlimit="10"/></g><g transform="translate(-13,-30) scale(1,1)"><g><path fill="none" stroke="none"/><text fill="#000000" stroke="none" font-family="Arial" font-size="13px" font-style="normal" font-weight="bold" text-decoration="none" x="32.530517578125" y="386.5">ThemedLexiconsCatalog</text><path fill="none" stroke="#000000" d="M 181.3671875 386.5 L 27.5 386.5" stroke-miterlimit="10"/></g></g><g transform="translate(-13,-30) scale(1,1)"><path fill="none" stroke="#000000" d="M 104 329 L 104 366" stroke-miterlimit="10" stroke-dasharray="3"/></g><g transform="translate(-13,-30) scale(1,1)"><path fill="none" stroke="#000000" d="M 99.79048224398402 355.83732514237585 L 104 366 L 108.20951775601598 355.83732514237585" stroke-miterlimit="10"/></g><g transform="translate(-13,-30) scale(1,1)"><g><path fill="none" stroke="none"/><text fill="#000000" stroke="none" font-family="Arial" font-size="13px" font-style="normal" font-weight="normal" text-decoration="none" x="100.5" y="352.5">+uses</text></g></g><g transform="translate(-13,-30) scale(1,1)"><path fill="none" stroke="#000000" d="M 104 262 L 104 152 L 300 152" stroke-miterlimit="10"/></g><g transform="translate(-13,-30) scale(1,1)"><path fill="#000000" stroke="none" d="M 289.83732514237585 156.209517756016 L 300 152 L 289.83732514237585 147.790482243984 L 278 152"/></g><g transform="translate(-13,-30) scale(1,1)"><path fill="none" stroke="#000000" d="M 289.83732514237585 156.209517756016 L 300 152 L 289.83732514237585 147.790482243984 L 278 152 L 289.83732514237585 156.209517756016" stroke-miterlimit="10"/></g><g transform="translate(-13,-30) scale(1,1)"><path fill="#C0C0C0" stroke="none" d="M 226.71630859375 313.5 C 226.71630859375 307.1487248 231.86503339375 302 238.21630859375 302 C 244.56758379375 302 249.71630859375 307.1487248 249.71630859375 313.5 C 249.71630859375 319.8512752 244.56758379375 325 238.21630859375 325 C 231.86503339375 325 226.71630859375 319.8512752 226.71630859375 313.5 Z" opacity="0.2"/></g><g transform="translate(-13,-30) scale(1,1)"><path fill="none" stroke="#000000" d="M 231 294.5 A 11.5 11.5 0 0 1 231 317.5" stroke-miterlimit="10"/></g><g transform="translate(-13,-30) scale(1,1)"><path fill="#ffffff" stroke="none" d="M 222.71630859375 306.5 C 222.71630859375 301.8055792 226.52188779375 298 231.21630859375 298 C 235.91072939375 298 239.71630859375 301.8055792 239.71630859375 306.5 C 239.71630859375 311.1944208 235.91072939375 315 231.21630859375 315 C 226.52188779375 315 222.71630859375 311.1944208 222.71630859375 306.5 Z"/></g><g transform="translate(-13,-30) scale(1,1)"><path fill="none" stroke="#000000" d="M 222.71630859375 306.5 C 222.71630859375 301.8055792 226.52188779375 298 231.21630859375 298 C 235.91072939375 298 239.71630859375 301.8055792 239.71630859375 306.5 C 239.71630859375 311.1944208 235.91072939375 315 231.21630859375 315 C 226.52188779375 315 222.71630859375 311.1944208 222.71630859375 306.5 Z" stroke-miterlimit="10"/></g><g transform="translate(-13,-30) scale(1,1)"><g><path fill="none" stroke="none"/><text fill="#000000" stroke="none" font-family="Arial" font-size="13px" font-style="normal" font-weight="normal" text-decoration="none" x="199.055908203125" y="335.5">«interface»</text></g></g><g transform="translate(-13,-30) scale(1,1)"><g><path fill="none" stroke="none"/><text fill="#000000" stroke="none" font-family="Arial" font-size="13px" font-style="normal" font-weight="bold" text-decoration="none" x="190.746826171875" y="350.5">createLexicon</text></g></g><g transform="translate(-13,-30) scale(1,1)"><path fill="none" stroke="#000000" d="M 170 306 L 219.71630859375 306" stroke-miterlimit="10"/></g><g transform="translate(-13,-30) scale(1,1)"><path fill="none" stroke="#000000" d="M 300 306 L 242.71630859375 306" stroke-miterlimit="10"/></g><g transform="translate(-13,-30) scale(1,1)"><path fill="none" stroke="#000000" d="M 160 695 L 224 695 L 224 356" stroke-miterlimit="10"/></g><g transform="translate(-13,-30) scale(1,1)"><path fill="#ffffff" stroke="none" d="M 489 80 L 606 80 L 616 90 L 616 159 L 489 159 L 489 80"/></g><g transform="translate(-13,-30) scale(1,1)"><path fill="none" stroke="#000000" d="M 489 80 L 606 80 L 616 90 L 616 159 L 489 159 L 489 80 L 489 80" stroke-miterlimit="10"/></g><g transform="translate(-13,-30) scale(1,1)"><path fill="none" stroke="#000000" d="M 606 80 L 606 90 L 616 90 L 606 80" stroke-miterlimit="10"/></g><g transform="translate(-13,-30) scale(1,1)"><g><path fill="none" stroke="none"/><text fill="#000000" stroke="none" font-family="Arial" font-size="13px" font-style="normal" font-weight="normal" text-decoration="none" x="494" y="98">The Game and</text><text fill="#000000" stroke="none" font-family="Arial" font-size="13px" font-style="normal" font-weight="normal" text-decoration="none" x="494" y="111">WordStop classes</text><text fill="#000000" stroke="none" font-family="Arial" font-size="13px" font-style="normal" font-weight="normal" text-decoration="none" x="494" y="124">constitute the</text><text fill="#000000" stroke="none" font-family="Arial" font-size="13px" font-style="normal" font-weight="normal" text-decoration="none" x="494" y="137">'model' from an</text><text fill="#000000" stroke="none" font-family="Arial" font-size="13px" font-style="normal" font-weight="normal" text-decoration="none" x="494" y="150">MVC perspective.</text></g></g><g transform="translate(-13,-30) scale(1,1)"><path fill="none" stroke="#000000" d="M 427 86 L 488 102" stroke-miterlimit="10" stroke-dasharray="3"/></g><g transform="translate(-13,-30) scale(1,1)"><path fill="none" stroke="#000000" d="M 427 156 L 488 139" stroke-miterlimit="10" stroke-dasharray="3"/></g><g transform="translate(-13,-30) scale(1,1)"><path fill="#ffffff" stroke="none" d="M 489 455 L 606 455 L 616 465 L 616 530 L 489 530 L 489 455"/></g><g transform="translate(-13,-30) scale(1,1)"><path fill="none" stroke="#000000" d="M 489 455 L 606 455 L 616 465 L 616 530 L 489 530 L 489 455 L 489 455" stroke-miterlimit="10"/></g><g transform="translate(-13,-30) scale(1,1)"><path fill="none" stroke="#000000" d="M 606 455 L 606 465 L 616 465 L 606 455" stroke-miterlimit="10"/></g><g transform="translate(-13,-30) scale(1,1)"><g><path fill="none" stroke="none"/><text fill="#000000" stroke="none" font-family="Arial" font-size="13px" font-style="normal" font-weight="normal" text-decoration="none" x="494" y="473">This quiesces input</text><text fill="#000000" stroke="none" font-family="Arial" font-size="13px" font-style="normal" font-weight="normal" text-decoration="none" x="494" y="486">events while the</text><text fill="#000000" stroke="none" font-family="Arial" font-size="13px" font-style="normal" font-weight="normal" text-decoration="none" x="494" y="499">controller updates</text><text fill="#000000" stroke="none" font-family="Arial" font-size="13px" font-style="normal" font-weight="normal" text-decoration="none" x="494" y="512">the model.</text></g></g><g transform="translate(-13,-30) scale(1,1)"><path fill="none" stroke="#000000" d="M 553 454 L 553 418" stroke-miterlimit="10" stroke-dasharray="3"/></g><g transform="translate(-13,-30) scale(1,1)"><path fill="#ffffff" stroke="none" d="M 32 416 L 173 416 L 183 426 L 183 530 L 32 530 L 32 416"/></g><g transform="translate(-13,-30) scale(1,1)"><path fill="none" stroke="#000000" d="M 32 416 L 173 416 L 183 426 L 183 530 L 32 530 L 32 416 L 32 416" stroke-miterlimit="10"/></g><g transform="translate(-13,-30) scale(1,1)"><path fill="none" stroke="#000000" d="M 173 416 L 173 426 L 183 426 L 173 416" stroke-miterlimit="10"/></g><g transform="translate(-13,-30) scale(1,1)"><g><path fill="none" stroke="none"/><text fill="#000000" stroke="none" font-family="Arial" font-size="13px" font-style="normal" font-weight="normal" text-decoration="none" x="37" y="434">This is a giant chunk of</text><text fill="#000000" stroke="none" font-family="Arial" font-size="13px" font-style="normal" font-weight="normal" text-decoration="none" x="37" y="447">json containing all</text><text fill="#000000" stroke="none" font-family="Arial" font-size="13px" font-style="normal" font-weight="normal" text-decoration="none" x="37" y="460">lexicons known to the</text><text fill="#000000" stroke="none" font-family="Arial" font-size="13px" font-style="normal" font-weight="normal" text-decoration="none" x="37" y="473">game, organized by</text><text fill="#000000" stroke="none" font-family="Arial" font-size="13px" font-style="normal" font-weight="normal" text-decoration="none" x="37" y="486">theme.  It gets turned</text><text fill="#000000" stroke="none" font-family="Arial" font-size="13px" font-style="normal" font-weight="normal" text-decoration="none" x="37" y="499">into Lexicon objects with</text><text fill="#000000" stroke="none" font-family="Arial" font-size="13px" font-style="normal" font-weight="normal" text-decoration="none" x="37" y="512">behavior during runtime.</text></g></g><g transform="translate(-13,-30) scale(1,1)"><path fill="none" stroke="#000000" d="M 104 416 L 104 391" stroke-miterlimit="10" stroke-dasharray="3"/></g><g transform="translate(-13,-30) scale(1,1)"><path fill="#ffffff" stroke="none" d="M 291 456 L 424 456 L 434 466 L 434 531 L 291 531 L 291 456"/></g><g transform="translate(-13,-30) scale(1,1)"><path fill="none" stroke="#000000" d="M 291 456 L 424 456 L 434 466 L 434 531 L 291 531 L 291 456 L 291 456" stroke-miterlimit="10"/></g><g transform="translate(-13,-30) scale(1,1)"><path fill="none" stroke="#000000" d="M 424 456 L 424 466 L 434 466 L 424 456" stroke-miterlimit="10"/></g><g transform="translate(-13,-30) scale(1,1)"><g><path fill="none" stroke="none"/><text fill="#000000" stroke="none" font-family="Arial" font-size="13px" font-style="normal" font-weight="normal" text-decoration="none" x="296" y="474">This instantiates one</text><text fill="#000000" stroke="none" font-family="Arial" font-size="13px" font-style="normal" font-weight="normal" text-decoration="none" x="296" y="487">themed lexicon based</text><text fill="#000000" stroke="none" font-family="Arial" font-size="13px" font-style="normal" font-weight="normal" text-decoration="none" x="296" y="500">upon user selection at</text><text fill="#000000" stroke="none" font-family="Arial" font-size="13px" font-style="normal" font-weight="normal" text-decoration="none" x="296" y="513">runtime.</text></g></g><g transform="translate(-13,-30) scale(1,1)"><path fill="none" stroke="#000000" d="M 256 357 L 333 455" stroke-miterlimit="10" stroke-dasharray="3"/></g></g></svg>